<svg xmlns="http://www.w3.org/2000/svg" xmlns:xlink="http://www.w3.org/1999/xlink" width="100" zoomAndPan="magnify" viewBox="0 0 375 374.999991" height="75" preserveAspectRatio="xMidYMid meet" version="1.0"><defs><g/></defs><g fill="none" fill-opacity="1"><g transform="translate(2.398434, 212.166387)"><g><path d="M 62.875 -29.65625 C 62.875 -23.539062 61.660156 -18.160156 59.234375 -13.515625 C 56.816406 -8.867188 53.351562 -5.316406 48.84375 -2.859375 C 44.34375 -0.398438 39.085938 0.828125 33.078125 0.828125 C 23.847656 0.828125 16.609375 -1.890625 11.359375 -7.328125 C 6.117188 -12.765625 3.5 -20.207031 3.5 -29.65625 C 3.5 -39.082031 6.113281 -46.4375 11.34375 -51.71875 C 16.570312 -57.007812 23.847656 -59.65625 33.171875 -59.65625 C 42.484375 -59.65625 49.757812 -56.984375 55 -51.640625 C 60.25 -46.304688 62.875 -38.976562 62.875 -29.65625 Z M 50.3125 -29.65625 C 50.3125 -36 48.804688 -40.972656 45.796875 -44.578125 C 42.796875 -48.179688 38.585938 -49.984375 33.171875 -49.984375 C 27.660156 -49.984375 23.398438 -48.191406 20.390625 -44.609375 C 17.390625 -41.035156 15.890625 -36.050781 15.890625 -29.65625 C 15.890625 -23.207031 17.425781 -18.125 20.5 -14.40625 C 23.570312 -10.695312 27.765625 -8.84375 33.078125 -8.84375 C 38.585938 -8.84375 42.835938 -10.648438 45.828125 -14.265625 C 48.816406 -17.878906 50.3125 -23.007812 50.3125 -29.65625 Z M 50.3125 -29.65625 "/></g></g></g><g fill="#ea4335" fill-opacity="1"><g transform="translate(68.843742, 212.166387)"><g><path d="M 62.875 -29.65625 C 62.875 -23.539062 61.660156 -18.160156 59.234375 -13.515625 C 56.816406 -8.867188 53.351562 -5.316406 48.84375 -2.859375 C 44.34375 -0.398438 39.085938 0.828125 33.078125 0.828125 C 23.847656 0.828125 16.609375 -1.890625 11.359375 -7.328125 C 6.117188 -12.765625 3.5 -20.207031 3.5 -29.65625 C 3.5 -39.082031 6.113281 -46.4375 11.34375 -51.71875 C 16.570312 -57.007812 23.847656 -59.65625 33.171875 -59.65625 C 42.484375 -59.65625 49.757812 -56.984375 55 -51.640625 C 60.25 -46.304688 62.875 -38.976562 62.875 -29.65625 Z M 50.3125 -29.65625 C 50.3125 -36 48.804688 -40.972656 45.796875 -44.578125 C 42.796875 -48.179688 38.585938 -49.984375 33.171875 -49.984375 C 27.660156 -49.984375 23.398438 -48.191406 20.390625 -44.609375 C 17.390625 -41.035156 15.890625 -36.050781 15.890625 -29.65625 C 15.890625 -23.207031 17.425781 -18.125 20.5 -14.40625 C 23.570312 -10.695312 27.765625 -8.84375 33.078125 -8.84375 C 38.585938 -8.84375 42.835938 -10.648438 45.828125 -14.265625 C 48.816406 -17.878906 50.3125 -23.007812 50.3125 -29.65625 Z M 50.3125 -29.65625 "/></g></g></g><g fill="#fbbc05" fill-opacity="1"><g transform="translate(135.289054, 212.166387)"><g><path d="M 62.875 -29.65625 C 62.875 -23.539062 61.660156 -18.160156 59.234375 -13.515625 C 56.816406 -8.867188 53.351562 -5.316406 48.84375 -2.859375 C 44.34375 -0.398438 39.085938 0.828125 33.078125 0.828125 C 23.847656 0.828125 16.609375 -1.890625 11.359375 -7.328125 C 6.117188 -12.765625 3.5 -20.207031 3.5 -29.65625 C 3.5 -39.082031 6.113281 -46.4375 11.34375 -51.71875 C 16.570312 -57.007812 23.847656 -59.65625 33.171875 -59.65625 C 42.484375 -59.65625 49.757812 -56.984375 55 -51.640625 C 60.25 -46.304688 62.875 -38.976562 62.875 -29.65625 Z M 50.3125 -29.65625 C 50.3125 -36 48.804688 -40.972656 45.796875 -44.578125 C 42.796875 -48.179688 38.585938 -49.984375 33.171875 -49.984375 C 27.660156 -49.984375 23.398438 -48.191406 20.390625 -44.609375 C 17.390625 -41.035156 15.890625 -36.050781 15.890625 -29.65625 C 15.890625 -23.207031 17.425781 -18.125 20.5 -14.40625 C 23.570312 -10.695312 27.765625 -8.84375 33.078125 -8.84375 C 38.585938 -8.84375 42.835938 -10.648438 45.828125 -14.265625 C 48.816406 -17.878906 50.3125 -23.007812 50.3125 -29.65625 Z M 50.3125 -29.65625 "/></g></g></g><g fill="#4285f4" fill-opacity="1"><g transform="translate(201.734362, 212.166387)"><g><path d="M 58.109375 -29.828125 C 58.109375 -23.765625 56.921875 -18.472656 54.546875 -13.953125 C 52.171875 -9.429688 48.804688 -5.972656 44.453125 -3.578125 C 40.097656 -1.191406 35.113281 0 29.5 0 L 5.71875 0 L 5.71875 -58.78125 L 26.984375 -58.78125 C 36.890625 -58.78125 44.550781 -56.28125 49.96875 -51.28125 C 55.394531 -46.289062 58.109375 -39.140625 58.109375 -29.828125 Z M 45.71875 -29.828125 C 45.71875 -36.140625 44.078125 -40.957031 40.796875 -44.28125 C 37.515625 -47.601562 32.828125 -49.265625 26.734375 -49.265625 L 18.015625 -49.265625 L 18.015625 -9.515625 L 28.453125 -9.515625 C 33.734375 -9.515625 37.929688 -11.332031 41.046875 -14.96875 C 44.160156 -18.613281 45.71875 -23.566406 45.71875 -29.828125 Z M 45.71875 -29.828125 "/></g></g></g><g fill="#34a853" fill-opacity="1"><g transform="translate(263.421858, 212.166387)"><g><path d="M 5.71875 0 L 5.71875 -58.78125 L 18.015625 -58.78125 L 18.015625 -9.515625 L 49.5625 -9.515625 L 49.5625 0 Z M 5.71875 0 "/></g></g></g><g fill="#ea4335" fill-opacity="1"><g transform="translate(315.605445, 212.166387)"><g><path d="M 5.71875 0 L 5.71875 -58.78125 L 51.9375 -58.78125 L 51.9375 -49.265625 L 18.015625 -49.265625 L 18.015625 -34.5 L 49.390625 -34.5 L 49.390625 -24.984375 L 18.015625 -24.984375 L 18.015625 -9.515625 L 53.65625 -9.515625 L 53.65625 0 Z M 5.71875 0 "/></g></g></g></svg>