<svg width="48" height="48" viewBox="0 0 48 48" fill="none" xmlns="http://www.w3.org/2000/svg">
<path d="M36.8703 22.2598L36.8609 22.2556L11.9456 11.6098C11.736 11.5194 11.508 11.484 11.2819 11.5066C11.0558 11.5293 10.8386 11.6093 10.6499 11.7396C10.4505 11.8742 10.2867 12.0578 10.1733 12.2738C10.0598 12.4898 10.0003 12.7314 10 12.977V19.7855C10.0001 20.1213 10.1139 20.4464 10.3218 20.705C10.5297 20.9636 10.8186 21.1394 11.1388 21.202L24.7276 23.7905C24.781 23.8009 24.8292 23.8302 24.8639 23.8733C24.8985 23.9164 24.9175 23.9707 24.9175 24.0267C24.9175 24.0826 24.8985 24.1369 24.8639 24.18C24.8292 24.2231 24.781 24.2524 24.7276 24.2628L11.1394 26.8513C10.8193 26.9138 10.5304 27.0893 10.3224 27.3476C10.1144 27.606 10.0004 27.931 10 28.2666V35.0763C9.99985 35.3108 10.0562 35.5417 10.164 35.7482C10.2719 35.9547 10.4278 36.1305 10.6178 36.2596C10.8464 36.4161 11.1146 36.4997 11.389 36.5C11.5798 36.4998 11.7687 36.4604 11.9444 36.384L36.8592 25.7989L36.8703 25.7935C37.2056 25.6451 37.4914 25.3986 37.6922 25.0845C37.893 24.7705 38 24.4027 38 24.0267C38 23.6506 37.893 23.2828 37.6922 22.9688C37.4914 22.6547 37.2056 22.4082 36.8703 22.2598Z" fill="#4285F4"/>
</svg>
