<svg width="50" height="50" viewBox="0 0 50 50" fill="none" xmlns="http://www.w3.org/2000/svg">
<circle cx="25" cy="25" r="25" fill="#4285F4"/>
<path d="M16.6666 25.8334V19.1667H14.1666C13.5036 19.1667 12.8677 19.4301 12.3989 19.899C11.93 20.3678 11.6666 21.0037 11.6666 21.6667V36.6667C11.6679 36.8215 11.7122 36.9729 11.7946 37.1039C11.877 37.2349 11.9943 37.3403 12.1333 37.4084C12.2672 37.4693 12.4148 37.4937 12.5612 37.479C12.7076 37.4644 12.8474 37.4113 12.9666 37.3251L17.2583 34.1667H28.4583C28.7741 34.1761 29.0885 34.1205 29.382 34.0034C29.6755 33.8863 29.9418 33.7102 30.1644 33.4859C30.3871 33.2617 30.5613 32.9942 30.6764 32.6999C30.7914 32.4056 30.8448 32.0908 30.8333 31.7751V30.8334H21.6666C20.3405 30.8334 19.0688 30.3066 18.1311 29.3689C17.1934 28.4313 16.6666 27.1595 16.6666 25.8334Z" fill="white"/>
<path d="M35.8333 13.3333H21.6666C21.0036 13.3333 20.3677 13.5966 19.8989 14.0655C19.43 14.5343 19.1666 15.1702 19.1666 15.8333V25.8333C19.1666 26.4963 19.43 27.1322 19.8989 27.601C20.3677 28.0699 21.0036 28.3333 21.6666 28.3333H32.9583L36.9416 31.4249C37.06 31.5125 37.1995 31.5671 37.3459 31.5832C37.4923 31.5993 37.6403 31.5763 37.775 31.5166C37.9168 31.449 38.0366 31.3428 38.1206 31.2101C38.2047 31.0774 38.2495 30.9237 38.25 30.7666V15.8333C38.2503 15.1844 37.9984 14.5608 37.5474 14.0943C37.0965 13.6278 36.4818 13.3549 35.8333 13.3333Z" fill="white"/>
</svg>
