<svg width="125" height="50" viewBox="0 0 125 50" fill="none" xmlns="http://www.w3.org/2000/svg">
<rect width="104" height="50" rx="25" fill="#F2F0F0"/>
<circle cx="100" cy="25" r="25" fill="#34A853"/>
<path d="M91.6666 25.8334V19.1667H89.1666C88.5036 19.1667 87.8677 19.4301 87.3989 19.899C86.93 20.3678 86.6666 21.0037 86.6666 21.6667V36.6667C86.6679 36.8215 86.7122 36.9729 86.7946 37.1039C86.877 37.2349 86.9943 37.3403 87.1333 37.4084C87.2672 37.4693 87.4148 37.4937 87.5612 37.479C87.7076 37.4644 87.8474 37.4113 87.9666 37.3251L92.2583 34.1667H103.458C103.774 34.1761 104.089 34.1205 104.382 34.0034C104.675 33.8863 104.942 33.7102 105.164 33.4859C105.387 33.2617 105.561 32.9942 105.676 32.6999C105.791 32.4056 105.845 32.0908 105.833 31.7751V30.8334H96.6666C95.3405 30.8334 94.0688 30.3066 93.1311 29.3689C92.1934 28.4313 91.6666 27.1595 91.6666 25.8334Z" fill="white"/>
<path d="M110.833 13.3333H96.6666C96.0036 13.3333 95.3677 13.5966 94.8989 14.0655C94.43 14.5343 94.1666 15.1702 94.1666 15.8333V25.8333C94.1666 26.4963 94.43 27.1322 94.8989 27.601C95.3677 28.0699 96.0036 28.3333 96.6666 28.3333H107.958L111.942 31.4249C112.06 31.5125 112.2 31.5671 112.346 31.5832C112.492 31.5993 112.64 31.5763 112.775 31.5166C112.917 31.449 113.037 31.3428 113.121 31.2101C113.205 31.0774 113.25 30.9237 113.25 30.7666V15.8333C113.25 15.1844 112.998 14.5608 112.547 14.0943C112.096 13.6278 111.482 13.3549 110.833 13.3333Z" fill="white"/>
<path d="M20.5703 20.0469V30H19.251V20.0469H20.5703ZM24.043 24.1826V30H22.7783V22.6035H23.9746L24.043 24.1826ZM23.7422 26.0215L23.2158 26.001C23.2204 25.4951 23.2956 25.028 23.4414 24.5996C23.5872 24.1667 23.7923 23.7907 24.0566 23.4717C24.321 23.1527 24.6354 22.9066 25 22.7334C25.3691 22.5557 25.777 22.4668 26.2236 22.4668C26.5882 22.4668 26.9163 22.5169 27.208 22.6172C27.4997 22.7129 27.748 22.8678 27.9531 23.082C28.1628 23.2962 28.3223 23.5742 28.4316 23.916C28.541 24.2533 28.5957 24.6657 28.5957 25.1533V30H27.3242V25.1396C27.3242 24.7523 27.2673 24.4424 27.1533 24.21C27.0394 23.973 26.873 23.8021 26.6543 23.6973C26.4355 23.5879 26.1667 23.5332 25.8477 23.5332C25.5332 23.5332 25.2461 23.5993 24.9863 23.7314C24.7311 23.8636 24.5101 24.0459 24.3232 24.2783C24.141 24.5107 23.9974 24.7773 23.8926 25.0781C23.7923 25.3743 23.7422 25.6888 23.7422 26.0215ZM34.8232 28.0381C34.8232 27.8558 34.7822 27.6872 34.7002 27.5322C34.6227 27.3727 34.4609 27.2292 34.2148 27.1016C33.9733 26.9694 33.6087 26.8555 33.1211 26.7598C32.7109 26.6732 32.3395 26.5706 32.0068 26.4521C31.6787 26.3337 31.3984 26.1901 31.166 26.0215C30.9382 25.8529 30.7627 25.6546 30.6396 25.4268C30.5166 25.1989 30.4551 24.9323 30.4551 24.627C30.4551 24.3353 30.5189 24.0596 30.6465 23.7998C30.7786 23.54 30.9632 23.3099 31.2002 23.1094C31.4417 22.9089 31.7311 22.7516 32.0684 22.6377C32.4056 22.5238 32.7816 22.4668 33.1963 22.4668C33.7887 22.4668 34.2946 22.5716 34.7139 22.7812C35.1331 22.9909 35.4544 23.2712 35.6777 23.6221C35.901 23.9684 36.0127 24.3535 36.0127 24.7773H34.748C34.748 24.5723 34.6865 24.374 34.5635 24.1826C34.445 23.9867 34.2695 23.8249 34.0371 23.6973C33.8092 23.5697 33.529 23.5059 33.1963 23.5059C32.8454 23.5059 32.5605 23.5605 32.3418 23.6699C32.1276 23.7747 31.9704 23.9092 31.8701 24.0732C31.7744 24.2373 31.7266 24.4105 31.7266 24.5928C31.7266 24.7295 31.7493 24.8525 31.7949 24.9619C31.8451 25.0667 31.9316 25.1647 32.0547 25.2559C32.1777 25.3424 32.3509 25.4245 32.5742 25.502C32.7975 25.5794 33.0824 25.6569 33.4287 25.7344C34.0348 25.8711 34.5339 26.0352 34.9258 26.2266C35.3177 26.418 35.6094 26.6527 35.8008 26.9307C35.9922 27.2087 36.0879 27.5459 36.0879 27.9424C36.0879 28.266 36.0195 28.5622 35.8828 28.8311C35.7507 29.0999 35.557 29.3324 35.3018 29.5283C35.0511 29.7197 34.7503 29.8701 34.3994 29.9795C34.0531 30.0843 33.6634 30.1367 33.2305 30.1367C32.5788 30.1367 32.0273 30.0205 31.5762 29.7881C31.125 29.5557 30.7832 29.2549 30.5508 28.8857C30.3184 28.5166 30.2021 28.127 30.2021 27.7168H31.4736C31.4919 28.0632 31.5921 28.3389 31.7744 28.5439C31.9567 28.7445 32.18 28.888 32.4443 28.9746C32.7087 29.0566 32.9707 29.0977 33.2305 29.0977C33.5768 29.0977 33.8662 29.0521 34.0986 28.9609C34.3356 28.8698 34.5156 28.7445 34.6387 28.585C34.7617 28.4255 34.8232 28.2432 34.8232 28.0381ZM39.123 22.6035V30H37.8516V22.6035H39.123ZM37.7559 20.6416C37.7559 20.4365 37.8174 20.2633 37.9404 20.1221C38.068 19.9808 38.2549 19.9102 38.501 19.9102C38.7425 19.9102 38.9271 19.9808 39.0547 20.1221C39.1868 20.2633 39.2529 20.4365 39.2529 20.6416C39.2529 20.8376 39.1868 21.0062 39.0547 21.1475C38.9271 21.2842 38.7425 21.3525 38.501 21.3525C38.2549 21.3525 38.068 21.2842 37.9404 21.1475C37.8174 21.0062 37.7559 20.8376 37.7559 20.6416ZM45.9453 22.6035H47.0938V29.8428C47.0938 30.4945 46.9616 31.0505 46.6973 31.5107C46.4329 31.971 46.0638 32.3197 45.5898 32.5566C45.1204 32.7982 44.5781 32.9189 43.9629 32.9189C43.7077 32.9189 43.4069 32.8779 43.0605 32.7959C42.7188 32.7184 42.3815 32.584 42.0488 32.3926C41.7207 32.2057 41.445 31.9528 41.2217 31.6338L41.8848 30.8818C42.1947 31.2555 42.5182 31.5153 42.8555 31.6611C43.1973 31.807 43.5345 31.8799 43.8672 31.8799C44.2682 31.8799 44.6146 31.8047 44.9062 31.6543C45.1979 31.5039 45.4235 31.2806 45.583 30.9844C45.7471 30.6927 45.8291 30.3327 45.8291 29.9043V24.2305L45.9453 22.6035ZM40.8525 26.3838V26.2402C40.8525 25.6751 40.9186 25.1624 41.0508 24.7021C41.1875 24.2373 41.3812 23.8385 41.6318 23.5059C41.887 23.1732 42.1947 22.918 42.5547 22.7402C42.9147 22.5579 43.3203 22.4668 43.7715 22.4668C44.2363 22.4668 44.6419 22.5488 44.9883 22.7129C45.3392 22.8724 45.6354 23.1071 45.877 23.417C46.123 23.7223 46.3167 24.0915 46.458 24.5244C46.5993 24.9574 46.6973 25.4473 46.752 25.9941V26.623C46.7018 27.1654 46.6038 27.653 46.458 28.0859C46.3167 28.5189 46.123 28.888 45.877 29.1934C45.6354 29.4987 45.3392 29.7334 44.9883 29.8975C44.6374 30.057 44.2272 30.1367 43.7578 30.1367C43.3158 30.1367 42.9147 30.0433 42.5547 29.8564C42.1992 29.6696 41.8939 29.4076 41.6387 29.0703C41.3835 28.7331 41.1875 28.3366 41.0508 27.8809C40.9186 27.4206 40.8525 26.9215 40.8525 26.3838ZM42.1172 26.2402V26.3838C42.1172 26.7529 42.1536 27.0993 42.2266 27.4229C42.304 27.7464 42.4202 28.0312 42.5752 28.2773C42.7347 28.5234 42.9375 28.7171 43.1836 28.8584C43.4297 28.9951 43.7236 29.0635 44.0654 29.0635C44.4847 29.0635 44.8311 28.9746 45.1045 28.7969C45.3779 28.6191 45.5944 28.3844 45.7539 28.0928C45.918 27.8011 46.0456 27.4844 46.1367 27.1426V25.4951C46.0866 25.2445 46.0091 25.0029 45.9043 24.7705C45.804 24.5335 45.6719 24.3239 45.5078 24.1416C45.3483 23.9548 45.1501 23.8066 44.9131 23.6973C44.6761 23.5879 44.3981 23.5332 44.0791 23.5332C43.7327 23.5332 43.4342 23.6061 43.1836 23.752C42.9375 23.8932 42.7347 24.0892 42.5752 24.3398C42.4202 24.5859 42.304 24.873 42.2266 25.2012C42.1536 25.5247 42.1172 25.8711 42.1172 26.2402ZM50.2793 19.5V30H49.0146V19.5H50.2793ZM49.9785 26.0215L49.4521 26.001C49.4567 25.4951 49.5319 25.028 49.6777 24.5996C49.8236 24.1667 50.0286 23.7907 50.293 23.4717C50.5573 23.1527 50.8717 22.9066 51.2363 22.7334C51.6055 22.5557 52.0133 22.4668 52.46 22.4668C52.8245 22.4668 53.1527 22.5169 53.4443 22.6172C53.736 22.7129 53.9844 22.8678 54.1895 23.082C54.3991 23.2962 54.5586 23.5742 54.668 23.916C54.7773 24.2533 54.832 24.6657 54.832 25.1533V30H53.5605V25.1396C53.5605 24.7523 53.5036 24.4424 53.3896 24.21C53.2757 23.973 53.1094 23.8021 52.8906 23.6973C52.6719 23.5879 52.403 23.5332 52.084 23.5332C51.7695 23.5332 51.4824 23.5993 51.2227 23.7314C50.9674 23.8636 50.7464 24.0459 50.5596 24.2783C50.3773 24.5107 50.2337 24.7773 50.1289 25.0781C50.0286 25.3743 49.9785 25.6888 49.9785 26.0215ZM59.8223 22.6035V23.5742H55.8232V22.6035H59.8223ZM57.1768 20.8057H58.4414V28.168C58.4414 28.4186 58.4801 28.6077 58.5576 28.7354C58.6351 28.863 58.7354 28.9473 58.8584 28.9883C58.9814 29.0293 59.1136 29.0498 59.2549 29.0498C59.3597 29.0498 59.4691 29.0407 59.583 29.0225C59.7015 28.9997 59.7904 28.9814 59.8496 28.9678L59.8564 30C59.7562 30.0319 59.624 30.0615 59.46 30.0889C59.3005 30.1208 59.1068 30.1367 58.8789 30.1367C58.569 30.1367 58.2842 30.0752 58.0244 29.9521C57.7646 29.8291 57.5573 29.624 57.4023 29.3369C57.252 29.0452 57.1768 28.6533 57.1768 28.1611V20.8057ZM65.6123 28.0381C65.6123 27.8558 65.5713 27.6872 65.4893 27.5322C65.4118 27.3727 65.25 27.2292 65.0039 27.1016C64.7624 26.9694 64.3978 26.8555 63.9102 26.7598C63.5 26.6732 63.1286 26.5706 62.7959 26.4521C62.4678 26.3337 62.1875 26.1901 61.9551 26.0215C61.7272 25.8529 61.5518 25.6546 61.4287 25.4268C61.3057 25.1989 61.2441 24.9323 61.2441 24.627C61.2441 24.3353 61.3079 24.0596 61.4355 23.7998C61.5677 23.54 61.7523 23.3099 61.9893 23.1094C62.2308 22.9089 62.5202 22.7516 62.8574 22.6377C63.1947 22.5238 63.5706 22.4668 63.9854 22.4668C64.5778 22.4668 65.0837 22.5716 65.5029 22.7812C65.9222 22.9909 66.2435 23.2712 66.4668 23.6221C66.6901 23.9684 66.8018 24.3535 66.8018 24.7773H65.5371C65.5371 24.5723 65.4756 24.374 65.3525 24.1826C65.234 23.9867 65.0586 23.8249 64.8262 23.6973C64.5983 23.5697 64.318 23.5059 63.9854 23.5059C63.6344 23.5059 63.3496 23.5605 63.1309 23.6699C62.9167 23.7747 62.7594 23.9092 62.6592 24.0732C62.5635 24.2373 62.5156 24.4105 62.5156 24.5928C62.5156 24.7295 62.5384 24.8525 62.584 24.9619C62.6341 25.0667 62.7207 25.1647 62.8438 25.2559C62.9668 25.3424 63.14 25.4245 63.3633 25.502C63.5866 25.5794 63.8714 25.6569 64.2178 25.7344C64.8239 25.8711 65.3229 26.0352 65.7148 26.2266C66.1068 26.418 66.3984 26.6527 66.5898 26.9307C66.7812 27.2087 66.877 27.5459 66.877 27.9424C66.877 28.266 66.8086 28.5622 66.6719 28.8311C66.5397 29.0999 66.346 29.3324 66.0908 29.5283C65.8402 29.7197 65.5394 29.8701 65.1885 29.9795C64.8421 30.0843 64.4525 30.1367 64.0195 30.1367C63.3678 30.1367 62.8164 30.0205 62.3652 29.7881C61.9141 29.5557 61.5723 29.2549 61.3398 28.8857C61.1074 28.5166 60.9912 28.127 60.9912 27.7168H62.2627C62.2809 28.0632 62.3812 28.3389 62.5635 28.5439C62.7458 28.7445 62.9691 28.888 63.2334 28.9746C63.4977 29.0566 63.7598 29.0977 64.0195 29.0977C64.3659 29.0977 64.6553 29.0521 64.8877 28.9609C65.1247 28.8698 65.3047 28.7445 65.4277 28.585C65.5508 28.4255 65.6123 28.2432 65.6123 28.0381Z" fill="#34A853"/>
</svg>
