<svg width="50" height="50" viewBox="0 0 50 50" fill="none" xmlns="http://www.w3.org/2000/svg">
<circle cx="25" cy="25" r="24.5" fill="white" stroke="#4285F4"/>
<g clip-path="url(#clip0_18_62)">
<path d="M16.6667 25.8334V19.1667H14.1667C13.5036 19.1667 12.8678 19.4301 12.3989 19.899C11.9301 20.3678 11.6667 21.0037 11.6667 21.6667V36.6667C11.6679 36.8215 11.7122 36.9729 11.7947 37.1039C11.8771 37.2349 11.9944 37.3403 12.1334 37.4084C12.2673 37.4693 12.4149 37.4937 12.5612 37.479C12.7076 37.4644 12.8475 37.4113 12.9667 37.3251L17.2584 34.1667H28.4584C28.7742 34.1761 29.0886 34.1205 29.3821 34.0034C29.6755 33.8863 29.9418 33.7102 30.1645 33.4859C30.3871 33.2617 30.5614 32.9942 30.6764 32.6999C30.7915 32.4056 30.8449 32.0908 30.8334 31.7751V30.8334H21.6667C20.3406 30.8334 19.0688 30.3066 18.1312 29.3689C17.1935 28.4313 16.6667 27.1595 16.6667 25.8334Z" fill="#4285F4"/>
<path d="M35.8334 13.3333H21.6667C21.0036 13.3333 20.3678 13.5966 19.8989 14.0655C19.4301 14.5343 19.1667 15.1702 19.1667 15.8333V25.8333C19.1667 26.4963 19.4301 27.1322 19.8989 27.601C20.3678 28.0699 21.0036 28.3333 21.6667 28.3333H32.9584L36.9417 31.4249C37.0601 31.5125 37.1996 31.5671 37.346 31.5832C37.4924 31.5993 37.6404 31.5763 37.775 31.5166C37.9168 31.449 38.0367 31.3428 38.1207 31.2101C38.2047 31.0774 38.2496 30.9237 38.25 30.7666V15.8333C38.2504 15.1844 37.9985 14.5608 37.5475 14.0943C37.0965 13.6278 36.4818 13.3549 35.8334 13.3333Z" fill="#4285F4"/>
</g>
<defs>
<clipPath id="clip0_18_62">
<rect width="30" height="30" fill="white" transform="translate(10 10)"/>
</clipPath>
</defs>
</svg>
